<svg xmlns="http://www.w3.org/2000/svg" xmlns:xlink="http://www.w3.org/1999/xlink" version="1.1" x="0px" y="0px" viewBox="0 0 52 65" enable-background="new 0 0 52 52" xml:space="preserve"><g><path d="M26,21.3c-4.1,0-7.5,3.3-7.5,7.5s3.3,7.5,7.5,7.5c4.1,0,7.5-3.3,7.5-7.5S30.1,21.3,26,21.3z"/><path d="M47.9,2H42v13.9c0,0.6-0.5,1-1,1H11c-0.6,0-1-0.5-1-1V2H6.2L2,6.2v41.7C2,49.1,2.9,50,4.1,50h43.8c1.2,0,2.1-0.9,2.1-2.1   V4.1C50,2.9,49.1,2,47.9,2z M26,38.3c-5.3,0-9.5-4.3-9.5-9.5c0-5.3,4.3-9.5,9.5-9.5c5.3,0,9.5,4.3,9.5,9.5   C35.5,34,31.3,38.3,26,38.3z M43.7,44.8h-1.4c-0.6,0-1-0.5-1-1c0-0.6,0.5-1,1-1h1.4c0.6,0,1,0.5,1,1C44.8,44.3,44.3,44.8,43.7,44.8   z"/><path d="M40,2H12v12.8H40V2z M35.9,11.9c0,0.6-0.5,1-1,1s-1-0.5-1-1V6c0-0.6,0.5-1,1-1s1,0.5,1,1V11.9z"/></g><text x="0" y="67" fill="#000000" font-size="5px" font-weight="bold" font-family="'Helvetica Neue', Helvetica, Arial-Unicode, Arial, Sans-serif">Created by Vectorstall</text><text x="0" y="72" fill="#000000" font-size="5px" font-weight="bold" font-family="'Helvetica Neue', Helvetica, Arial-Unicode, Arial, Sans-serif">from the Noun Project</text></svg>